<svg width="10.000000" height="18.000000" viewBox="0 0 10 18" fill="none" xmlns="http://www.w3.org/2000/svg" xmlns:xlink="http://www.w3.org/1999/xlink">
	<desc>
			Created with Pixso.
	</desc>
	<defs>
		<clipPath id="clip1_97">
			<rect id="iconFB" rx="0.000000" width="9.000000" height="17.000000" transform="translate(0.500000 0.500000)" fill="white" fill-opacity="0"/>
		</clipPath>
	</defs>
	<rect id="iconFB" rx="0.000000" width="9.000000" height="17.000000" transform="translate(0.500000 0.500000)" fill="#FFFFFF" fill-opacity="0"/>
	<g clip-path="url(#clip1_97)">
		<path id="Vector" d="M9.36 0L7.03 0C4.4 0 2.71 1.73 2.71 4.42L2.71 6.47L0.36 6.47C0.16 6.47 0 6.63 0 6.83L0 9.79C0 10 0.16 10.16 0.36 10.16L2.71 10.16L2.71 17.63C2.71 17.83 2.87 18 3.08 18L6.14 18C6.34 18 6.51 17.83 6.51 17.63L6.51 10.16L9.25 10.16C9.45 10.16 9.62 10 9.62 9.79L9.62 6.83C9.62 6.74 9.58 6.64 9.51 6.57C9.44 6.51 9.35 6.47 9.25 6.47L6.51 6.47L6.51 4.74C6.51 3.9 6.7 3.48 7.79 3.48L9.36 3.48C9.56 3.48 9.73 3.32 9.73 3.11L9.73 0.37C9.73 0.16 9.56 0 9.36 0Z" fill="#FFFFFF" fill-opacity="1.000000" fill-rule="nonzero"/>
	</g>
</svg>
