<svg width="19.000000" height="14.000000" viewBox="0 0 19 14" fill="none" xmlns="http://www.w3.org/2000/svg" xmlns:xlink="http://www.w3.org/1999/xlink">
	<desc>
			Created with Pixso.
	</desc>
	<defs>
		<clipPath id="clip1_8">
			<rect id="iconYouTube" rx="0.000000" width="18.000000" height="13.000000" transform="translate(0.500000 0.500000)" fill="white" fill-opacity="0"/>
		</clipPath>
	</defs>
	<rect id="iconYouTube" rx="0.000000" width="18.000000" height="13.000000" transform="translate(0.500000 0.500000)" fill="#FFFFFF" fill-opacity="0"/>
	<g clip-path="url(#clip1_8)">
		<path id="Vector" d="M18.25 1.14C17.57 0.33 16.3 0 13.88 0L5.11 0C2.63 0 1.34 0.35 0.66 1.22C0 2.06 0 3.31 0 5.04L0 8.33C0 11.67 0.79 13.37 5.11 13.37L13.88 13.37C15.98 13.37 17.14 13.07 17.9 12.35C18.67 11.62 19 10.41 19 8.33L19 5.04C19 3.22 18.94 1.96 18.25 1.14ZM12.19 7.13L8.21 9.22C8.12 9.26 8.02 9.29 7.92 9.29C7.81 9.29 7.7 9.26 7.61 9.2C7.42 9.09 7.31 8.89 7.31 8.67L7.31 4.52C7.31 4.31 7.42 4.11 7.6 4C7.79 3.89 8.02 3.88 8.21 3.98L12.19 6.05C12.39 6.15 12.52 6.36 12.52 6.59C12.52 6.82 12.4 7.03 12.19 7.13Z" fill="#90A4B3" fill-opacity="1.000000" fill-rule="nonzero"/>
	</g>
</svg>
