<svg width="160.000000" height="35.000000" viewBox="0 0 160 35" fill="none" xmlns="http://www.w3.org/2000/svg" xmlns:xlink="http://www.w3.org/1999/xlink">
	<desc>
			Created with Pixso.
	</desc>
	<defs>
		<clipPath id="clip1_70">
			<rect id="iconLogoWhite 1" rx="0.000000" width="159.000000" height="34.000000" transform="translate(0.500000 0.500000)" fill="white" fill-opacity="0"/>
		</clipPath>
	</defs>
	<rect id="iconLogoWhite 1" rx="0.000000" width="159.000000" height="34.000000" transform="translate(0.500000 0.500000)" fill="#FFFFFF" fill-opacity="0"/>
	<g clip-path="url(#clip1_70)">
		<path id="Vector" d="M7.53 0.38L14.77 0.38L14.77 2.31L12.37 2.31L12.37 29.7L10.21 29.7L10.21 2.31L7.53 2.31L7.53 0.38Z" fill="#FFFFFF" fill-opacity="1.000000" fill-rule="nonzero"/>
		<path id="Vector" d="M25.08 4.41C25.12 4.41 25.14 4.59 25.14 4.94C25.14 5.3 25.14 5.65 25.13 6.01L25.13 6.53C24.36 6.53 23.68 6.7 23.09 7.06C22.5 7.4 21.93 8.03 21.37 8.94L21.37 29.7L19.2 29.7L19.2 4.71L21.37 4.71L21.37 7.49C21.62 6.51 22.06 5.76 22.69 5.23C23.33 4.68 24.13 4.41 25.08 4.41Z" fill="#FFFFFF" fill-opacity="1.000000" fill-rule="nonzero"/>
		<path id="Vector" d="M29.7 4.71L31.89 4.71L31.89 29.7L29.7 29.7L29.7 4.71ZM29.7 0.01L31.87 0.01L31.87 2.41L29.7 2.41L29.7 0.01Z" fill="#FFFFFF" fill-opacity="1.000000" fill-rule="nonzero"/>
		<path id="Vector" d="M44.41 12.02C44.41 10.07 44.34 8.85 44.19 8.37C44.06 7.89 43.89 7.47 43.7 7.13C43.5 6.78 43.18 6.61 42.74 6.61C42.29 6.61 41.96 6.64 41.75 6.71C41.22 6.88 40.84 7.36 40.6 8.16C40.35 8.95 40.23 10.25 40.23 12.06L40.23 21.99C40.23 24.11 40.38 25.61 40.67 26.48C40.97 27.35 41.53 27.78 42.36 27.78C43.18 27.78 43.73 27.35 44 26.48C44.28 25.62 44.41 24.09 44.41 21.9L44.41 12.02ZM40.23 6.63C40.75 5.23 41.71 4.53 43.13 4.53C44.12 4.53 44.86 4.9 45.36 5.66C45.86 6.4 46.19 7.37 46.35 8.56C46.5 9.74 46.58 11.16 46.58 12.82L46.58 21.79C46.58 21.82 46.58 21.86 46.58 21.9C46.58 25.05 46.22 27.18 45.5 28.32C44.78 29.44 43.8 30 42.56 30C42.07 30 41.6 29.8 41.16 29.4C40.74 28.99 40.43 28.49 40.23 27.9L40.23 34.11L38.06 34.11L38.06 4.71L40.23 4.71L40.23 6.63Z" fill="#FFFFFF" fill-opacity="1.000000" fill-rule="nonzero"/>
		<path id="Vector" d="M61.03 5.01L61.05 5.69C61.05 6.89 61.59 9.02 62.68 12.09C63.43 11.02 64 9.98 64.4 8.96C64.8 7.92 65.01 6.78 65.01 5.51C65.01 4.24 64.89 3.34 64.64 2.81C64.4 2.27 63.83 1.99 62.93 1.99C61.75 1.99 61.13 2.77 61.06 4.31C61.05 4.55 61.04 4.72 61.03 4.79C61.03 4.86 61.03 4.93 61.03 5.01ZM67.29 23.62C68.67 26.93 69.51 28.95 69.8 29.7L67.99 29.7C67.74 29.01 67.22 27.75 66.45 25.93C65.96 27.19 65.46 28.09 64.95 28.63C64.43 29.18 63.92 29.54 63.41 29.73C62.9 29.93 62.32 30.03 61.66 30.03C60.34 30.03 59.27 29.51 58.46 28.47C57.64 27.42 57.23 25.99 57.23 24.17C57.23 22.35 57.39 21 57.71 20.12C58.04 19.24 58.35 18.47 58.65 17.8C58.94 17.14 59.84 15.83 61.35 13.87C59.73 9.72 58.92 6.98 58.92 5.66C58.92 1.89 60.31 0.01 63.09 0.01C64.71 0.01 65.77 0.5 66.27 1.48C66.79 2.45 67.04 3.82 67.04 5.58C67.04 7.33 66.71 8.86 66.03 10.17C65.36 11.47 64.51 12.84 63.49 14.29C64.18 16.11 65.11 18.4 66.27 21.15C67.06 19.26 67.92 17.69 68.86 16.42L69.87 18.2C69 19.45 68.14 21.25 67.29 23.62ZM65.37 23.43C63.95 20.17 62.91 17.72 62.24 16.09C61.43 17.33 60.76 18.59 60.23 19.87C59.71 21.15 59.44 22.61 59.43 24.25C59.43 26.72 60.26 27.95 61.92 27.95C62.83 27.95 63.6 27.34 64.22 26.12C64.53 25.48 64.91 24.59 65.37 23.43Z" fill="#FFFFFF" fill-opacity="1.000000" fill-rule="nonzero"/>
		<path id="Vector" d="M90.28 0.38L92.71 0.38L92.71 29.7L90.74 29.7L90.74 17.14L91.08 5.33L87.42 29.07L85.36 29.07L81.57 5.33L81.91 17.14L81.91 29.7L79.93 29.7L79.93 0.38L82.36 0.38L86.39 25L90.28 0.38Z" fill="#FFFFFF" fill-opacity="1.000000" fill-rule="nonzero"/>
		<path id="Vector" d="M98.89 4.71L101.07 4.71L101.07 29.7L98.89 29.7L98.89 4.71ZM98.89 0.01L101.05 0.01L101.05 2.41L98.89 2.41L98.89 0.01Z" fill="#FFFFFF" fill-opacity="1.000000" fill-rule="nonzero"/>
		<path id="Vector" d="M109.42 7.16C109.61 6.41 110.04 5.77 110.7 5.23C111.37 4.67 112.15 4.39 113.06 4.39C113.96 4.39 114.7 4.82 115.28 5.68C115.87 6.53 116.16 7.81 116.16 9.52L116.16 29.7L113.99 29.7L113.99 9.32C113.99 8.36 113.79 7.66 113.41 7.24C113.03 6.81 112.52 6.59 111.88 6.59C110.24 6.59 109.42 7.52 109.42 9.37L109.42 29.7L107.25 29.7L107.25 4.71L109.42 4.71L109.42 7.16Z" fill="#FFFFFF" fill-opacity="1.000000" fill-rule="nonzero"/>
		<path id="Vector" d="M128.08 12.42C128.08 10.28 127.94 8.78 127.65 7.92C127.37 7.06 126.81 6.63 125.99 6.63C125.16 6.63 124.61 7.07 124.33 7.96C124.05 8.84 123.91 10.36 123.91 12.54L123.91 22.43C123.91 24.72 124.06 26.19 124.37 26.83C124.69 27.48 125.16 27.8 125.78 27.8C126.41 27.8 126.85 27.67 127.11 27.42C127.38 27.15 127.61 26.71 127.79 26.1C127.99 25.48 128.08 24.27 128.08 22.47L128.08 12.42ZM128.07 0L130.25 0L130.25 29.7L128.07 29.7L128.07 27.8C127.57 29.19 126.6 29.88 125.17 29.88C123.55 29.87 122.52 28.77 122.09 26.57C121.84 25.36 121.72 23.73 121.72 21.69L121.72 12.91C121.72 9.55 122.07 7.3 122.77 6.14C123.48 4.99 124.47 4.41 125.76 4.41C126.25 4.41 126.71 4.62 127.12 5.03C127.55 5.43 127.87 5.91 128.07 6.49L128.07 0Z" fill="#FFFFFF" fill-opacity="1.000000" fill-rule="nonzero"/>
		<path id="Vector" d="M153.38 8.01L159.7 15.25C160.09 15.69 160.09 16.41 159.7 16.86L153.38 24.09C152.99 24.54 152.36 24.54 151.97 24.09C151.59 23.65 151.59 22.93 151.97 22.48L156.6 17.19L139.13 17.19L139.13 14.91L156.6 14.91L151.97 9.62C151.59 9.17 151.59 8.45 151.97 8.01C152.36 7.57 152.99 7.57 153.38 8.01Z" fill="#EFC224" fill-opacity="1.000000" fill-rule="evenodd"/>
		<path id="Vector" d="M3.97 14.91L0 14.91L0 17.19L3.97 17.19L3.97 14.91Z" fill="#EFC224" fill-opacity="1.000000" fill-rule="nonzero"/>
	</g>
</svg>
