<svg width="185.000000" height="19.000000" viewBox="0 0 185 19" fill="none" xmlns="http://www.w3.org/2000/svg" xmlns:xlink="http://www.w3.org/1999/xlink">
	<desc>
			Created with Pixso.
	</desc>
	<defs>
		<clipPath id="clip1_8">
			<rect id="iconYouTube" rx="0.000000" width="18.000000" height="13.000000" transform="translate(0.500000 5.500000)" fill="white" fill-opacity="0"/>
		</clipPath>
		<clipPath id="clip1_10">
			<rect id="iconFB" rx="0.000000" width="9.000000" height="17.000000" transform="translate(58.500000 0.500000)" fill="white" fill-opacity="0"/>
		</clipPath>
		<clipPath id="clip1_12">
			<rect id="iconTwitter" rx="0.000000" width="18.000000" height="14.000000" transform="translate(107.500000 4.500000)" fill="white" fill-opacity="0"/>
		</clipPath>
		<clipPath id="clip1_14">
			<rect id="iconVK 1" rx="0.000000" width="19.000000" height="11.000000" transform="translate(165.500000 7.500000)" fill="white" fill-opacity="0"/>
		</clipPath>
	</defs>
	<rect id="iconYouTube" rx="0.000000" width="18.000000" height="13.000000" transform="translate(0.500000 5.500000)" fill="#FFFFFF" fill-opacity="0"/>
	<g clip-path="url(#clip1_8)">
		<path id="Vector" d="M18.25 6.14C17.57 5.33 16.3 5 13.88 5L5.11 5C2.63 5 1.34 5.35 0.66 6.22C0 7.06 0 8.31 0 10.04L0 13.33C0 16.67 0.79 18.37 5.11 18.37L13.88 18.37C15.98 18.37 17.14 18.07 17.9 17.35C18.67 16.62 19 15.41 19 13.33L19 10.04C19 8.22 18.94 6.96 18.25 6.14ZM12.19 12.13L8.21 14.22C8.12 14.26 8.02 14.29 7.92 14.29C7.81 14.29 7.7 14.26 7.61 14.2C7.42 14.09 7.31 13.89 7.31 13.67L7.31 9.52C7.31 9.31 7.42 9.11 7.6 9C7.79 8.89 8.02 8.88 8.21 8.98L12.19 11.05C12.39 11.15 12.52 11.36 12.52 11.59C12.52 11.82 12.4 12.03 12.19 12.13Z" fill="#90A4B3" fill-opacity="1.000000" fill-rule="nonzero"/>
	</g>
	<rect id="iconFB" rx="0.000000" width="9.000000" height="17.000000" transform="translate(58.500000 0.500000)" fill="#FFFFFF" fill-opacity="0"/>
	<g clip-path="url(#clip1_10)">
		<path id="Vector" d="M67.36 0L65.03 0C62.4 0 60.71 1.73 60.71 4.42L60.71 6.47L58.36 6.47C58.16 6.47 58 6.63 58 6.83L58 9.79C58 10 58.16 10.16 58.36 10.16L60.71 10.16L60.71 17.63C60.71 17.83 60.87 18 61.08 18L64.14 18C64.34 18 64.51 17.83 64.51 17.63L64.51 10.16L67.25 10.16C67.45 10.16 67.62 10 67.62 9.79L67.62 6.83C67.62 6.74 67.58 6.64 67.51 6.57C67.44 6.51 67.35 6.47 67.25 6.47L64.51 6.47L64.51 4.74C64.51 3.9 64.7 3.48 65.79 3.48L67.36 3.48C67.56 3.48 67.73 3.32 67.73 3.11L67.73 0.37C67.73 0.16 67.56 0 67.36 0Z" fill="#90A4B3" fill-opacity="1.000000" fill-rule="nonzero"/>
	</g>
	<rect id="iconTwitter" rx="0.000000" width="18.000000" height="14.000000" transform="translate(107.500000 4.500000)" fill="#FFFFFF" fill-opacity="0"/>
	<g clip-path="url(#clip1_12)">
		<path id="Vector" d="M125.73 5.73C125.02 6.04 124.31 6.23 123.6 6.3C124.4 5.82 124.94 5.14 125.22 4.27C124.49 4.7 123.71 5 122.88 5.16C122.15 4.38 121.25 4 120.19 4C119.17 4 118.3 4.35 117.58 5.07C116.86 5.79 116.5 6.66 116.5 7.68C116.5 7.96 116.53 8.24 116.59 8.53C115.08 8.45 113.67 8.07 112.35 7.39C111.03 6.71 109.9 5.8 108.98 4.67C108.65 5.24 108.48 5.86 108.48 6.53C108.48 7.16 108.63 7.75 108.93 8.29C109.22 8.83 109.62 9.27 110.13 9.6C109.53 9.58 108.98 9.42 108.46 9.13L108.46 9.18C108.46 10.07 108.74 10.85 109.3 11.53C109.86 12.2 110.56 12.63 111.42 12.8C111.1 12.88 110.77 12.93 110.45 12.93C110.23 12.93 110 12.91 109.75 12.87C109.98 13.61 110.42 14.21 111.05 14.69C111.68 15.17 112.4 15.41 113.2 15.43C111.86 16.48 110.33 17 108.62 17C108.29 17 107.99 16.99 107.73 16.96C109.44 18.06 111.33 18.61 113.39 18.61C114.7 18.61 115.93 18.41 117.08 17.99C118.23 17.58 119.21 17.02 120.03 16.32C120.84 15.63 121.54 14.83 122.13 13.92C122.72 13.01 123.16 12.07 123.45 11.08C123.74 10.1 123.89 9.11 123.89 8.12C123.89 7.9 123.88 7.74 123.88 7.64C124.6 7.11 125.22 6.48 125.73 5.73Z" fill="#90A4B3" fill-opacity="1.000000" fill-rule="nonzero"/>
	</g>
	<rect id="iconVK 1" rx="0.000000" width="19.000000" height="11.000000" transform="translate(165.500000 7.500000)" fill="#FFFFFF" fill-opacity="0"/>
	<g clip-path="url(#clip1_14)">
		<path id="Vector" d="M184.89 17.3C184.87 17.25 184.84 17.2 184.82 17.17C184.47 16.55 183.81 15.78 182.83 14.87L182.81 14.85L182.8 14.84L182.79 14.83L182.78 14.83C182.34 14.4 182.06 14.12 181.94 13.97C181.72 13.7 181.67 13.41 181.79 13.13C181.87 12.91 182.19 12.46 182.73 11.77C183.01 11.4 183.24 11.1 183.41 10.88C184.61 9.28 185.13 8.26 184.97 7.82L184.91 7.72C184.86 7.65 184.76 7.6 184.58 7.54C184.41 7.49 184.19 7.48 183.92 7.52L180.92 7.54C180.87 7.52 180.8 7.52 180.71 7.54C180.62 7.56 180.57 7.57 180.57 7.57L180.52 7.6L180.48 7.63C180.45 7.65 180.41 7.69 180.37 7.74C180.32 7.79 180.29 7.85 180.26 7.92C179.93 8.76 179.56 9.54 179.15 10.27C178.89 10.7 178.65 11.07 178.44 11.39C178.22 11.7 178.04 11.93 177.9 12.08C177.75 12.23 177.62 12.35 177.5 12.44C177.38 12.53 177.29 12.57 177.23 12.56C177.17 12.54 177.11 12.53 177.05 12.52C176.96 12.45 176.88 12.37 176.82 12.26C176.76 12.15 176.72 12.02 176.7 11.85C176.68 11.69 176.67 11.55 176.66 11.43C176.66 11.31 176.66 11.15 176.67 10.93C176.68 10.72 176.68 10.57 176.68 10.5C176.68 10.23 176.68 9.95 176.69 9.64C176.71 9.33 176.71 9.08 176.72 8.9C176.73 8.72 176.73 8.53 176.73 8.33C176.73 8.13 176.72 7.97 176.69 7.86C176.67 7.74 176.63 7.63 176.59 7.52C176.54 7.41 176.47 7.33 176.37 7.27C176.28 7.21 176.16 7.17 176.02 7.13C175.66 7.05 175.19 7 174.62 7C173.33 6.98 172.5 7.07 172.13 7.25C171.98 7.32 171.85 7.43 171.73 7.56C171.61 7.71 171.59 7.79 171.68 7.81C172.1 7.87 172.39 8.02 172.57 8.26L172.63 8.38C172.68 8.47 172.73 8.63 172.77 8.86C172.82 9.09 172.85 9.34 172.87 9.62C172.9 10.13 172.9 10.56 172.87 10.92C172.83 11.28 172.8 11.56 172.77 11.77C172.74 11.97 172.69 12.13 172.63 12.26C172.57 12.38 172.52 12.46 172.5 12.48C172.48 12.51 172.47 12.53 172.45 12.54C172.36 12.57 172.27 12.59 172.17 12.59C172.07 12.59 171.95 12.54 171.82 12.44C171.68 12.35 171.53 12.21 171.38 12.04C171.23 11.87 171.07 11.63 170.88 11.33C170.69 11.02 170.5 10.66 170.3 10.25L170.13 9.94C170.03 9.75 169.88 9.47 169.7 9.09C169.52 8.72 169.36 8.36 169.22 8.02C169.17 7.87 169.08 7.76 168.97 7.68L168.92 7.65C168.89 7.62 168.83 7.59 168.75 7.56C168.68 7.53 168.6 7.51 168.52 7.5L165.66 7.52C165.37 7.52 165.17 7.58 165.07 7.71L165.03 7.78C165.01 7.81 165 7.87 165 7.94C165 8.02 165.02 8.11 165.06 8.22C165.47 9.2 165.93 10.15 166.42 11.06C166.91 11.97 167.33 12.7 167.69 13.25C168.05 13.81 168.42 14.33 168.8 14.83C169.17 15.32 169.42 15.64 169.54 15.77C169.66 15.91 169.76 16.02 169.83 16.09L170.09 16.34C170.25 16.5 170.5 16.7 170.82 16.94C171.14 17.17 171.5 17.4 171.89 17.62C172.29 17.85 172.74 18.03 173.26 18.17C173.78 18.32 174.29 18.37 174.78 18.35L175.98 18.35C176.22 18.33 176.41 18.25 176.53 18.12L176.57 18.07C176.6 18.02 176.63 17.96 176.65 17.87C176.68 17.79 176.69 17.69 176.69 17.59C176.68 17.29 176.7 17.02 176.76 16.78C176.81 16.54 176.87 16.36 176.93 16.24C177 16.12 177.07 16.01 177.16 15.93C177.24 15.85 177.3 15.8 177.34 15.78C177.37 15.76 177.4 15.75 177.42 15.74C177.58 15.69 177.78 15.74 178.01 15.91C178.23 16.07 178.44 16.27 178.64 16.51C178.84 16.75 179.08 17.02 179.36 17.32C179.63 17.61 179.88 17.84 180.08 17.98L180.29 18.11C180.43 18.19 180.61 18.27 180.83 18.34C181.06 18.41 181.25 18.42 181.42 18.39L184.08 18.35C184.35 18.35 184.55 18.3 184.7 18.22C184.84 18.13 184.93 18.03 184.96 17.93C184.99 17.83 184.99 17.71 184.96 17.58C184.94 17.44 184.91 17.35 184.89 17.3Z" fill="#90A4B3" fill-opacity="1.000000" fill-rule="nonzero"/>
	</g>
</svg>
