<svg width="19.000000" height="15.000000" viewBox="0 0 19 15" fill="none" xmlns="http://www.w3.org/2000/svg" xmlns:xlink="http://www.w3.org/1999/xlink">
	<desc>
			Created with Pixso.
	</desc>
	<defs>
		<clipPath id="clip1_99">
			<rect id="iconTwitter" rx="0.000000" width="18.000000" height="14.000000" transform="translate(0.500000 0.500000)" fill="white" fill-opacity="0"/>
		</clipPath>
	</defs>
	<rect id="iconTwitter" rx="0.000000" width="18.000000" height="14.000000" transform="translate(0.500000 0.500000)" fill="#FFFFFF" fill-opacity="0"/>
	<g clip-path="url(#clip1_99)">
		<path id="Vector" d="M18.73 1.73C18.02 2.04 17.31 2.23 16.6 2.3C17.4 1.82 17.94 1.14 18.22 0.27C17.49 0.7 16.71 1 15.88 1.16C15.15 0.38 14.25 0 13.19 0C12.17 0 11.3 0.35 10.58 1.07C9.86 1.79 9.5 2.66 9.5 3.68C9.5 3.96 9.53 4.24 9.59 4.53C8.08 4.45 6.67 4.07 5.35 3.39C4.03 2.71 2.9 1.8 1.98 0.67C1.65 1.24 1.48 1.86 1.48 2.53C1.48 3.16 1.63 3.75 1.93 4.29C2.22 4.83 2.62 5.27 3.13 5.6C2.53 5.58 1.98 5.42 1.46 5.13L1.46 5.18C1.46 6.07 1.74 6.85 2.3 7.53C2.86 8.2 3.56 8.63 4.42 8.8C4.1 8.88 3.77 8.93 3.44 8.93C3.23 8.93 3 8.91 2.75 8.87C2.98 9.61 3.42 10.21 4.05 10.69C4.68 11.17 5.4 11.41 6.2 11.43C4.86 12.48 3.33 13 1.62 13C1.29 13 0.99 12.99 0.73 12.96C2.44 14.06 4.33 14.61 6.39 14.61C7.7 14.61 8.93 14.41 10.08 13.99C11.23 13.58 12.21 13.02 13.03 12.32C13.84 11.63 14.54 10.83 15.13 9.92C15.72 9.01 16.16 8.07 16.45 7.08C16.74 6.1 16.89 5.11 16.89 4.12C16.89 3.9 16.88 3.74 16.88 3.64C17.6 3.11 18.22 2.48 18.73 1.73Z" fill="#FFFFFF" fill-opacity="1.000000" fill-rule="nonzero"/>
	</g>
</svg>
