<svg width="20.000000" height="12.000000" viewBox="0 0 20 12" fill="none" xmlns="http://www.w3.org/2000/svg" xmlns:xlink="http://www.w3.org/1999/xlink">
	<desc>
			Created with Pixso.
	</desc>
	<defs>
		<clipPath id="clip1_101">
			<rect id="iconVK 1" rx="0.000000" width="19.000000" height="11.000000" transform="translate(0.500000 0.500000)" fill="white" fill-opacity="0"/>
		</clipPath>
	</defs>
	<rect id="iconVK 1" rx="0.000000" width="19.000000" height="11.000000" transform="translate(0.500000 0.500000)" fill="#FFFFFF" fill-opacity="0"/>
	<g clip-path="url(#clip1_101)">
		<path id="Vector" d="M19.89 10.3C19.86 10.25 19.84 10.2 19.82 10.17C19.47 9.55 18.81 8.78 17.83 7.87L17.81 7.85L17.8 7.84L17.79 7.83L17.78 7.83C17.34 7.4 17.05 7.12 16.94 6.97C16.72 6.7 16.67 6.41 16.79 6.13C16.87 5.91 17.19 5.46 17.73 4.77C18.01 4.4 18.24 4.1 18.4 3.88C19.61 2.28 20.13 1.26 19.97 0.82L19.9 0.72C19.86 0.65 19.76 0.6 19.58 0.54C19.41 0.49 19.19 0.48 18.92 0.52L15.92 0.54C15.87 0.52 15.8 0.52 15.71 0.54C15.62 0.56 15.57 0.57 15.57 0.57L15.52 0.6L15.48 0.63C15.44 0.65 15.41 0.69 15.36 0.74C15.32 0.79 15.29 0.85 15.26 0.92C14.93 1.76 14.56 2.54 14.15 3.27C13.89 3.7 13.65 4.07 13.44 4.39C13.22 4.7 13.04 4.93 12.9 5.08C12.75 5.23 12.62 5.35 12.5 5.44C12.38 5.53 12.29 5.57 12.23 5.56C12.17 5.54 12.11 5.53 12.05 5.52C11.96 5.45 11.88 5.37 11.82 5.26C11.76 5.15 11.72 5.02 11.7 4.85C11.68 4.69 11.67 4.55 11.66 4.43C11.66 4.31 11.66 4.15 11.67 3.93C11.68 3.72 11.68 3.57 11.68 3.5C11.68 3.23 11.68 2.95 11.69 2.64C11.7 2.33 11.71 2.08 11.72 1.9C11.73 1.72 11.73 1.53 11.73 1.33C11.73 1.13 11.72 0.97 11.69 0.86C11.67 0.74 11.63 0.63 11.59 0.52C11.54 0.41 11.47 0.33 11.37 0.27C11.28 0.21 11.16 0.17 11.02 0.13C10.65 0.05 10.19 0 9.62 0C8.33 -0.02 7.5 0.07 7.13 0.25C6.98 0.32 6.85 0.43 6.73 0.56C6.61 0.71 6.59 0.79 6.68 0.81C7.1 0.87 7.39 1.02 7.57 1.26L7.63 1.38C7.68 1.47 7.73 1.63 7.77 1.86C7.82 2.09 7.85 2.34 7.87 2.62C7.9 3.13 7.9 3.56 7.87 3.92C7.83 4.28 7.8 4.56 7.77 4.77C7.74 4.97 7.69 5.13 7.63 5.26C7.57 5.38 7.52 5.46 7.5 5.48C7.48 5.51 7.46 5.53 7.45 5.54C7.36 5.57 7.27 5.59 7.17 5.59C7.07 5.59 6.95 5.54 6.82 5.44C6.68 5.35 6.53 5.21 6.38 5.04C6.23 4.87 6.07 4.63 5.88 4.33C5.69 4.02 5.5 3.66 5.3 3.25L5.13 2.94C5.02 2.75 4.88 2.47 4.7 2.09C4.52 1.72 4.36 1.36 4.22 1.02C4.17 0.87 4.08 0.76 3.97 0.68L3.92 0.65C3.89 0.62 3.83 0.6 3.75 0.56C3.68 0.53 3.6 0.51 3.51 0.5L0.66 0.52C0.37 0.52 0.17 0.58 0.07 0.71L0.03 0.78C0.01 0.81 0 0.87 0 0.94C0 1.02 0.02 1.11 0.06 1.22C0.47 2.2 0.93 3.15 1.42 4.06C1.91 4.97 2.33 5.7 2.69 6.25C3.05 6.81 3.42 7.33 3.8 7.83C4.17 8.32 4.42 8.64 4.54 8.77C4.66 8.91 4.76 9.02 4.83 9.09L5.09 9.34C5.25 9.5 5.5 9.7 5.82 9.94C6.14 10.17 6.5 10.4 6.89 10.62C7.29 10.85 7.74 11.03 8.26 11.17C8.78 11.32 9.29 11.37 9.78 11.35L10.98 11.35C11.22 11.33 11.41 11.25 11.53 11.12L11.57 11.07C11.6 11.02 11.63 10.96 11.65 10.87C11.68 10.79 11.69 10.69 11.69 10.59C11.68 10.29 11.7 10.02 11.76 9.78C11.81 9.54 11.87 9.36 11.93 9.24C12 9.12 12.07 9.01 12.16 8.93C12.24 8.85 12.3 8.8 12.33 8.78C12.37 8.76 12.4 8.75 12.42 8.74C12.58 8.69 12.78 8.74 13.01 8.9C13.23 9.07 13.44 9.27 13.64 9.51C13.84 9.75 14.08 10.02 14.35 10.32C14.63 10.61 14.88 10.84 15.08 10.98L15.29 11.11C15.43 11.19 15.61 11.27 15.83 11.34C16.06 11.41 16.25 11.42 16.42 11.39L19.08 11.35C19.35 11.35 19.55 11.3 19.7 11.22C19.84 11.13 19.93 11.03 19.96 10.93C19.98 10.83 19.99 10.71 19.96 10.58C19.94 10.44 19.91 10.35 19.89 10.3Z" fill="#FFFFFF" fill-opacity="1.000000" fill-rule="nonzero"/>
	</g>
</svg>
